<svg enable-background="new 0 0 500 116" viewBox="0 0 500 116" xmlns="http://www.w3.org/2000/svg"><path d="m-90-200h680v516h-680z" fill="none"/><g transform=""><ellipse cx="489.1" cy="78.1" fill="#2396fb" rx="10.3" ry="10.3"/><g fill="#303f9f"><path d="m456.9 87.1h12v-17.2h-11.4c-4.7 0-8.5-3.6-8.5-8.3v-25.6h20v-15h-15c-2.8 0-5-2.2-5-5v-16h-16.9v61.5c0 16.9 9.6 25.6 24.8 25.6z"/><path d="m183.8 26.4-7.2 12.2c-3.7-1.8-7.9-4.2-11.8-4.2-3.6 0-6.2 1.7-6.2 4.3 0 3 3.6 4.2 10.1 6.7 10.1 3.7 19.1 10.7 19.1 21.7 0 11.2-9.3 21-23.9 21-9.6 0-17.6-4.1-22.6-7.4l6.4-13.5c3.3 2 10.9 5 16 5 4.5 0 6.4-2.5 6.4-5 0-3.2-3.2-5-11.3-8.3-5.5-2.2-17.1-7-17.1-19.6 0-11.6 9.9-19.1 22.4-19.1 6.9.1 13.1 2.5 19.7 6.2z"/><path d="m349.1 20.3c18.7 0 33.9 15.3 33.9 33.9s-15.3 33.9-33.9 33.9c-18.7 0-33.9-15.3-33.9-33.9s15.2-33.9 33.9-33.9zm0 17.4c-9.2 0-16.7 7.4-16.7 16.6s7.5 16.7 16.7 16.7 16.6-7.5 16.6-16.7-7.4-16.6-16.6-16.6z"/><path d="m312.2 54.1c0 18.7-13.8 33.8-30.8 33.8-7.5 0-13.9-2.5-18.8-7.5v32.8c0 1.1-.9 2-2 2h-14.6v-61.1c0-18.5 13.6-33.7 33.2-33.7 19.4.1 33 15.2 33 33.7zm-16.5 0c0-10.4-7.4-18.2-16.5-18.2s-16.5 8.1-16.5 18.2c0 10.3 7.4 18.5 16.5 18.5s16.5-7.9 16.5-18.5z"/><path d="m250.9 21-27.2 66.4c-6.4 15.4-17.4 24.5-31.3 27.2l-5.5-15.4c10.1-2 17.8-8.7 21.6-19.5l-24.1-58.7h18.8l12.6 31c1 2.6 2.7 2.6 3.8 0l12.4-31z"/><path d="m426.1 26.4-7.2 12.2c-3.7-1.8-7.9-4.2-11.8-4.2-3.6 0-6.2 1.7-6.2 4.3 0 3 3.6 4.2 10.1 6.7 10.1 3.7 19.1 10.7 19.1 21.7 0 11.2-9.3 21-23.9 21-9.6 0-17.6-4.1-22.6-7.4l6.4-13.5c3.3 2 10.9 5 16 5 4.5 0 6.4-2.5 6.4-5 0-3.2-3.2-5-11.3-8.3-5.5-2.2-17.1-7-17.1-19.6 0-11.6 9.9-19.1 22.4-19.1 6.9.1 13.1 2.5 19.7 6.2z"/><path d="m138 21v66h-14.9v-5.5c-5.4 4.1-12 6.7-19.5 6.7-18.7 0-33.9-15.3-33.9-34.1 0-18.7 15.3-33.8 33.9-33.8 7.4 0 13.9 2.5 19.3 6.7v-6zm-34 50c9.2 0 16.6-7.5 16.6-16.8 0-9.2-7.4-16.6-16.6-16.6s-16.6 7.4-16.6 16.6c0 9.3 7.4 16.8 16.6 16.8z"/><path d="m67.4 60h-49.8c3.2 8.4 10.5 12 17.6 12 7.4 0 13.5-3.6 17.8-7.1l10.1 12.2c-9.3 8.2-19.6 11-28.2 11-20 0-35-15.8-35-34.6 0-18.7 14.9-33.3 33.8-33.3 19.3.1 33.7 15.7 33.7 39.8zm-49.6-13.5h30.9c-1.3-6.4-7.1-12-15.3-12-7.9 0-14.3 5-15.6 12z"/></g></g></svg>